#!OML:ASF H:\Pregnant\Project 1\Capture day 1\Session 1\femalepreg.ASF
:FULLY-SPECIFIED
:DEGREES
1429
root 13.6125 7.3426 26.1491 -171.94 -25.2439 181.466
lowerback 66.6193 5.12998 5.689
upperback 6.88117 4.32173 -3.45653
thorax -13.4043 0.00828972 -8.09421
lowerneck 4.65073 25.674 24.4218
upperneck -5.48184 37.5447 -29.9681
head 7.96587 18.7527 -7.42559
rclavicle -2.38542e-015 -8.74653e-015
rhumerus 36.6972 4.80545 -76.0369
rradius 25.57
rwrist 13.4433
rhand -66.0019 -48.2878
rfingers 7.12502
rthumb -37.8448 -434.129
lclavicle -2.38542e-015 -8.74653e-015
lhumerus 65.4623 -36.798 25.7261
lradius 34.7866
lwrist 44.3888
lhand -32.0394 -369.704
lfingers 7.12502
lthumb -5.28681 380.21
rfemur -18.7173 -74.0678 -48.5919
rtibia 146.076
rfoot -58.3686 14.8521
rtoes -33.6565
lfemur -37.1867 80.5655 40.2733
ltibia 144.195
lfoot -326.255 -66.6719
ltoes 50.9468
1430
root 13.6373 7.34314 26.1871 -172.173 -25.2674 181.517
lowerback 67.0065 5.0925 5.75905
upperback 6.81548 4.31846 -3.40753
thorax -13.4741 -0.0148805 -8.0605
lowerneck 4.59688 25.6884 24.3566
upperneck -5.51745 37.5572 -30.0346
head 7.97079 18.7572 -7.42722
rclavicle -5.00937e-014 5.28767e-014
rhumerus 36.9892 4.7305 -75.9748
rradius 25.5384
rwrist 13.5579
rhand -65.8671 -47.1446
rfingers 7.12502
rthumb -37.7174 -433.02
lclavicle -5.00937e-014 5.28767e-014
lhumerus 65.4437 -36.5127 26.0114
lradius 34.6915
lwrist 44.1641
lhand -31.778 -369.512
lfingers 7.12502
lthumb -5.03433 380.408
rfemur -18.0884 -74.2139 -49.1613
rtibia 146.047
rfoot -58.6657 14.6107
rtoes -33.8477
lfemur -36.8108 80.7986 40.7438
ltibia 144.172
lfoot -326.162 -66.8023
ltoes 51.2682
1431
root 13.6619 7.343 26.2255 -172.4 -25.293 181.577
lowerback 67.3679 5.05173 5.83327
upperback 6.75582 4.31524 -3.36042
thorax -13.5356 -0.0370371 -8.03043
lowerneck 4.54193 25.7015 24.2938
upperneck -5.55647 37.5672 -30.1042
head 7.97552 18.7605 -7.43042
rclavicle -2.14687e-014 7.83212e-014
rhumerus 37.283 4.65888 -75.9137
rradius 25.5076
rwrist 13.6684
rhand -65.7372 -46.0916
rfingers 7.12502
rthumb -37.5947 -432
lclavicle -2.14687e-014 7.83212e-014
lhumerus 65.4236 -36.226 26.305
lradius 34.5915
lwrist 43.9401
lhand -31.5381 -369.342
lfingers 7.12502
lthumb -4.80274 380.584
rfemur -17.3363 -74.3819 -49.8552
rtibia 146.021
rfoot -58.9865 14.3656
rtoes -34.0494
lfemur -36.6249 81.025 41.0384
ltibia 144.159
lfoot -326.09 -66.9169
ltoes 51.5779
1432
root 13.6863 7.3422 26.2644 -172.619 -25.3195 181.645
lowerback 67.7041 5.00771 5.91163
upperback 6.70223 4.31164 -3.31708
thorax -13.5889 -0.0582553 -8.00606
lowerneck 4.48301 25.7148 24.2344
upperneck -5.59646 37.5764 -30.1731
head 7.98075 18.7629 -7.43337
rclavicle 5.56597e-015 6.44062e-014
rhumerus 37.5787 4.58799 -75.8561
rradius 25.4778
rwrist 13.7754
rhand -65.6104 -45.1123
rfingers 7.12502
rthumb -37.4749 -431.053
lclavicle 5.56597e-015 6.44062e-014
lhumerus 65.4026 -35.9391 26.6046
lradius 34.4914
lwrist 43.7244
lhand -31.3335 -369.177
lfingers 7.12502
lthumb -4.60521 380.753
rfemur -16.4575 -74.5709 -50.6776
rtibia 145.997
rfoot -59.3328 14.1062
rtoes -34.258
lfemur -36.6424 81.2454 41.1431
ltibia 144.157
lfoot -326.035 -67.0152
ltoes 51.8767
1433
root 13.7105 7.34078 26.3036 -172.83 -25.3456 181.72
lowerback 68.0159 4.96076 5.99405
upperback 6.65465 4.30751 -3.27917
thorax -13.6343 -0.0784974 -7.98934
lowerneck 4.41776 25.7292 24.1797
upperneck -5.63595 37.5857 -30.2394
head 7.98725 18.7644 -7.43495
rclavicle -7.95139e-014 4.6118e-014
rhumerus 37.8756 4.51407 -75.8056
rradius 25.4486
rwrist 13.8807
rhand -65.486 -44.1919
rfingers 7.12502
rthumb -37.3573 -430.163
lclavicle -7.95139e-014 4.6118e-014
lhumerus 65.3826 -35.6537 26.9055
lradius 34.3953
lwrist 43.5232
lhand -31.1726 -369.012
lfingers 7.12502
lthumb -4.44984 380.921
rfemur -15.4486 -74.7798 -51.6325
rtibia 145.976
rfoot -59.7041 13.83
rtoes -34.4724
lfemur -36.8735 81.4598 41.0473
ltibia 144.163
lfoot -325.986 -67.0976
ltoes 52.1617
